<svg width="25" height="26" viewBox="0 0 25 26" fill="none" xmlns="http://www.w3.org/2000/svg">
<g clip-path="url(#clip0_19_61)">
<path fill-rule="evenodd" clip-rule="evenodd" d="M12.4628 0.357178C5.57117 0.357178 0 6.08634 0 13.1741C0 18.8397 3.56964 23.6356 8.52168 25.333C9.14082 25.4606 9.3676 25.0572 9.3676 24.7179C9.3676 24.4207 9.34719 23.4022 9.34719 22.341C5.88036 23.1051 5.15842 20.8132 5.15842 20.8132C4.60128 19.3278 3.77577 18.946 3.77577 18.946C2.64107 18.1608 3.85842 18.1608 3.85842 18.1608C5.11709 18.2457 5.77755 19.4764 5.77755 19.4764C6.89158 21.4285 8.68673 20.877 9.40893 20.5374C9.51199 19.7098 9.84235 19.1369 10.1931 18.8186C7.42806 18.5215 4.51888 17.4181 4.51888 12.4949C4.51888 11.0944 5.01378 9.94858 5.79796 9.05744C5.67423 8.73921 5.24082 7.42332 5.92194 5.66213C5.92194 5.66213 6.97423 5.32254 9.34694 6.97775C10.3628 6.69719 11.4104 6.55447 12.4628 6.55327C13.5151 6.55327 14.5878 6.70197 15.5783 6.97775C17.9513 5.32254 19.0036 5.66213 19.0036 5.66213C19.6847 7.42332 19.251 8.73921 19.1273 9.05744C19.9321 9.94858 20.4066 11.0944 20.4066 12.4949C20.4066 17.4181 17.4974 18.5001 14.7117 18.8186C15.1658 19.2218 15.5577 19.9856 15.5577 21.1952C15.5577 22.9139 15.5372 24.2934 15.5372 24.7176C15.5372 25.0572 15.7643 25.4606 16.3832 25.3332C21.3352 23.6353 24.9048 18.8397 24.9048 13.1741C24.9253 6.08634 19.3337 0.357178 12.4628 0.357178Z" fill="#554689"/>
</g>
<defs>
<clipPath id="clip0_19_61">
<rect width="25" height="25" fill="white" transform="translate(0 0.357178)"/>
</clipPath>
</defs>
</svg>
