<svg width="88" height="37" viewBox="0 0 88 37" fill="none" xmlns="http://www.w3.org/2000/svg">
<path d="M45.4327 11.924L49.6194 11.6259C49.7149 12.3799 49.89 12.9411 50.1766 13.3444C50.6382 13.9756 51.275 14.2913 52.1187 14.2913C52.7395 14.2913 53.233 14.1335 53.5673 13.8003C53.8857 13.5373 54.0767 13.1164 54.0767 12.678C54.0767 12.2572 53.9016 11.8539 53.5991 11.5908C53.2808 11.2752 52.5326 10.9596 51.3546 10.679C49.4284 10.2056 48.0434 9.57428 47.2315 8.76766C46.4197 8.01364 45.958 6.90891 45.9899 5.73405C45.9899 4.92742 46.2127 4.1208 46.6266 3.45446C47.1042 2.70044 47.7569 2.10424 48.5369 1.77107C49.3806 1.36775 50.5586 1.15733 52.0391 1.15733C53.8538 1.15733 55.2388 1.52557 56.1939 2.27959C57.1491 3.01607 57.7221 4.20847 57.8972 5.83926L53.7583 6.10229C53.6469 5.40088 53.424 4.89235 53.0579 4.55918C52.6917 4.22601 52.2142 4.06819 51.5933 4.06819C51.0839 4.06819 50.7019 4.19094 50.4472 4.4189C50.2084 4.62932 50.0492 4.94496 50.0651 5.29566C50.0651 5.55869 50.1925 5.80419 50.3835 5.96201C50.5904 6.17243 51.0839 6.36532 51.864 6.54067C53.7902 6.99659 55.1592 7.45251 56.0029 7.92596C56.8466 8.39941 57.4515 8.97808 57.8177 9.66196C58.1997 10.3634 58.3907 11.17 58.3748 11.9942C58.3748 12.9761 58.1201 13.9581 57.6107 14.7823C57.0854 15.6415 56.3531 16.3078 55.4935 16.7112C54.5861 17.1495 53.4399 17.3775 52.0709 17.3775C49.6512 17.3775 47.9797 16.869 47.0405 15.8344C46.1013 14.7998 45.5441 13.5022 45.4327 11.924ZM1.00289 17.1145V1.43789H8.34153C9.69464 1.43789 10.7453 1.56064 11.4616 1.82367C12.1621 2.06917 12.7829 2.57769 13.1968 3.26157C13.6585 4.01559 13.8813 4.89235 13.8654 5.80419C13.9132 7.3473 13.1968 8.82026 11.9711 9.59182C11.4935 9.88992 10.9682 10.1003 10.4269 10.2056C10.8249 10.3283 11.2229 10.5387 11.5731 10.7842C11.8437 11.0297 12.0666 11.3103 12.2735 11.6084C12.5123 11.9065 12.7192 12.2396 12.8944 12.5904L15.0275 17.132H10.0289L7.67294 12.3098C7.37048 11.6961 7.11577 11.2927 6.87699 11.0999C6.55861 10.8544 6.17656 10.7316 5.7945 10.7316H5.41245V17.0969H1.00289V17.1145ZM5.41245 7.78568H7.27496C7.67294 7.75061 8.05499 7.68047 8.43705 7.57525C8.72359 7.52265 8.97829 7.3473 9.1534 7.08427C9.58321 6.45299 9.51954 5.55869 8.99421 5.0151C8.70767 4.75207 8.15051 4.61179 7.35456 4.61179H5.41245V7.78568ZM0 30.5465L4.18669 30.2484C4.2822 31.0024 4.45731 31.5636 4.74385 31.9669C5.18958 32.5981 5.84226 32.9313 6.68596 32.9313C7.3068 32.9313 7.80029 32.7735 8.13459 32.4403C8.45297 32.1598 8.64399 31.7565 8.64399 31.3181C8.64399 30.8972 8.46888 30.4939 8.16642 30.2309C7.84805 29.9152 7.09985 29.5996 5.90593 29.319C3.97974 28.8456 2.59479 28.2143 1.78292 27.4077C0.971056 26.6537 0.509407 25.549 0.541245 24.3741C0.541245 23.5675 0.76411 22.7608 1.178 22.0945C1.65557 21.3405 2.30825 20.7443 3.08828 20.4111C3.93198 20.0078 5.10999 19.7974 6.59045 19.7974C8.40521 19.7974 9.79016 20.1656 10.7453 20.9196C11.7004 21.6736 12.2576 22.8485 12.4327 24.4793L8.29378 24.7423C8.18234 24.0409 7.95948 23.5324 7.59334 23.1992C7.24313 22.866 6.74964 22.7082 6.1288 22.7258C5.61939 22.7258 5.23734 22.8485 4.98263 23.094C4.72793 23.3044 4.58466 23.6201 4.60058 23.9708C4.60058 24.2338 4.72793 24.4793 4.91896 24.6371C5.1259 24.8475 5.61939 25.0404 6.39942 25.2158C8.32561 25.6717 9.69464 26.1276 10.5383 26.6011C11.3821 27.0745 11.987 27.6532 12.3531 28.3371C12.7352 29.0385 12.9262 29.8451 12.9262 30.6517C12.9262 31.6337 12.6556 32.5981 12.1621 33.4223C11.6368 34.2815 10.9045 34.9479 10.0449 35.3512C9.13748 35.7896 7.99132 36.0175 6.62229 36.0175C4.2026 36.0175 2.53111 35.509 1.5919 34.4744C0.652677 33.4223 0.127352 32.1247 0 30.5465Z" fill="white"/>
<path d="M21.1724 29.319L25.0248 30.5991C24.8178 31.6688 24.388 32.6858 23.799 33.5801C23.2578 34.3692 22.5414 34.983 21.7296 35.3863C20.9018 35.7896 19.8511 36 18.5776 36C17.0335 36 15.76 35.7545 14.7889 35.2635C13.8019 34.7725 12.9582 33.8958 12.2419 32.6508C11.5255 31.4057 11.1753 29.81 11.1753 27.8636C11.1753 25.2684 11.7961 23.2694 13.0537 21.8841C14.3113 20.4988 16.0783 19.7974 18.3707 19.7974C20.1695 19.7974 21.5704 20.2007 22.6051 20.9898C23.6239 21.7964 24.388 23.0239 24.8974 24.6722L21.0132 25.6191C20.9177 25.2509 20.7744 24.8826 20.5834 24.567C20.3446 24.1987 20.0422 23.9182 19.676 23.7077C19.3099 23.4973 18.896 23.4096 18.4821 23.4096C17.4792 23.4096 16.7151 23.848 16.1898 24.7423C15.7918 25.3911 15.5848 26.4257 15.5848 27.8285C15.5848 29.5645 15.8236 30.7569 16.3012 31.4057C16.7788 32.0546 17.4474 32.3702 18.3229 32.3702C19.1666 32.3702 19.8034 32.1072 20.2332 31.5986C20.663 31.055 20.9814 30.301 21.1724 29.319ZM30.1666 20.0604H34.5602V25.549H39.3678V20.0604H43.7932V35.737H39.3678V29.3892H34.5602V35.737H30.1666V20.0604Z" fill="white"/>
<path d="M43.188 27.8987C43.188 25.3385 43.8407 23.3395 45.1301 21.9191C46.4195 20.4988 48.2343 19.7798 50.5425 19.7798C52.9145 19.7798 54.7292 20.4812 56.0187 21.8841C57.3081 23.2869 57.9449 25.2509 57.9449 27.7759C57.9449 29.6171 57.6583 31.1076 57.1012 32.2825C56.5599 33.4398 55.7162 34.3868 54.6815 35.018C53.6149 35.6668 52.2936 36 50.7177 36C49.1098 36 47.7886 35.7194 46.7379 35.1583C45.6554 34.5621 44.764 33.6327 44.175 32.4929C43.5223 31.2655 43.188 29.7399 43.188 27.8987ZM47.5816 27.9162C47.5816 29.4944 47.8522 30.6342 48.3776 31.3356C48.9029 32.0195 49.6352 32.3702 50.5585 32.3702C51.4977 32.3702 52.23 32.037 52.7553 31.3531C53.2806 30.6693 53.5353 29.4593 53.5353 27.7058C53.5353 26.2328 53.2647 25.1456 52.7234 24.4793C52.1822 23.7954 51.4499 23.4623 50.5266 23.4623C49.7148 23.4272 48.9347 23.813 48.3935 24.4968C47.8522 25.1807 47.5816 26.3205 47.5816 27.9162ZM62.4499 27.8987C62.4499 25.3385 63.1026 23.3395 64.392 21.9191C65.6815 20.4988 67.4962 19.7798 69.8045 19.7798C72.1764 19.7798 74.0071 20.4812 75.2806 21.8841C76.5541 23.2869 77.2068 25.2509 77.2068 27.7759C77.2068 29.6171 76.9203 31.1076 76.3631 32.2825C75.8219 33.4398 74.9781 34.3868 73.9434 35.018C72.8768 35.6668 71.5556 36 69.9796 36C68.3718 36 67.0505 35.7194 65.9999 35.1583C64.9174 34.5621 64.0259 33.6327 63.4369 32.4929C62.7842 31.2655 62.4499 29.7399 62.4499 27.8987ZM66.8436 27.9162C66.8436 29.4944 67.1142 30.6342 67.6395 31.3356C68.1648 32.0195 68.8971 32.3702 69.8204 32.3702C70.7596 32.3702 71.4919 32.037 72.0172 31.3531C72.5425 30.6693 72.7973 29.4593 72.7973 27.7058C72.7973 26.2328 72.5266 25.1456 71.9854 24.4793C71.4441 23.7954 70.7119 23.4623 69.7886 23.4623C68.9767 23.4272 68.1808 23.813 67.6554 24.4968C67.1142 25.1807 66.8436 26.3205 66.8436 27.9162Z" fill="white"/>
<path d="M76.7454 20.0604H81.139V31.8792H88.0001V35.737H76.7295V20.0604H76.7454Z" fill="white"/>
<path d="M71.9025 19.1557C76.326 15.4838 77.69 9.25935 74.9492 5.253C72.2084 1.24664 66.4006 0.975512 61.9771 4.64741C57.5537 8.3193 56.1896 14.5438 58.9305 18.5501C61.6713 22.5565 67.4791 22.8276 71.9025 19.1557Z" fill="white"/>
<mask id="mask0_51_227" style="mask-type:luminance" maskUnits="userSpaceOnUse" x="57" y="2" width="20" height="20">
<path d="M71.9025 19.1557C76.326 15.4838 77.69 9.25935 74.9492 5.253C72.2084 1.24664 66.4006 0.975512 61.9771 4.64741C57.5537 8.3193 56.1896 14.5438 58.9305 18.5501C61.6713 22.5565 67.4791 22.8276 71.9025 19.1557Z" fill="white"/>
</mask>
<g mask="url(#mask0_51_227)">
<path d="M47.6494 9.91457L70.5079 -9.0602L86.3253 14.0606L63.4668 33.0354L47.6494 9.91457Z" fill="white"/>
<mask id="mask1_51_227" style="mask-type:luminance" maskUnits="userSpaceOnUse" x="47" y="-10" width="40" height="44">
<path d="M47.6494 9.91457L70.5079 -9.0602L86.3253 14.0606L63.4668 33.0354L47.6494 9.91457Z" fill="white"/>
</mask>
<g mask="url(#mask1_51_227)">
<path d="M71.9025 19.1557C76.326 15.4838 77.69 9.25935 74.9492 5.253C72.2084 1.24664 66.4006 0.975512 61.9771 4.64741C57.5537 8.3193 56.1896 14.5438 58.9305 18.5501C61.6713 22.5565 67.4791 22.8276 71.9025 19.1557Z" fill="white"/>
<mask id="mask2_51_227" style="mask-type:luminance" maskUnits="userSpaceOnUse" x="57" y="2" width="20" height="20">
<path d="M71.9025 19.1557C76.326 15.4838 77.69 9.25935 74.9492 5.253C72.2084 1.24664 66.4006 0.975512 61.9771 4.64741C57.5537 8.3193 56.1896 14.5438 58.9305 18.5501C61.6713 22.5565 67.4791 22.8276 71.9025 19.1557Z" fill="white"/>
</mask>
<g mask="url(#mask2_51_227)">
<path d="M54.0146 11.4584L70.0209 -1.82783L79.9556 12.6947L63.9494 25.9809L54.0146 11.4584Z" fill="white"/>
<mask id="mask3_51_227" style="mask-type:luminance" maskUnits="userSpaceOnUse" x="54" y="-2" width="26" height="28">
<path d="M54.0146 11.4584L70.0209 -1.82782L79.9556 12.6947L63.9494 25.9809L54.0146 11.4584Z" fill="white"/>
</mask>
<g mask="url(#mask3_51_227)">
<path d="M71.9025 19.1557C76.326 15.4838 77.69 9.25935 74.9492 5.253C72.2084 1.24664 66.4006 0.975512 61.9771 4.64741C57.5537 8.3193 56.1896 14.5438 58.9305 18.5501C61.6713 22.5565 67.4791 22.8276 71.9025 19.1557Z" fill="white" stroke="#26192B" stroke-width="4" stroke-miterlimit="10"/>
</g>
<mask id="mask4_51_227" style="mask-type:luminance" maskUnits="userSpaceOnUse" x="56" y="-2" width="22" height="28">
<path d="M56.2959 20.7274L61.6367 -1.04175L77.6887 3.42304L72.3478 25.1922L56.2959 20.7274Z" fill="white"/>
</mask>
<g mask="url(#mask4_51_227)">
<path d="M54.0146 11.6979L70.1368 -1.82783L79.9556 12.4552L63.8334 25.9809L54.0146 11.6979Z" stroke="#26192B" stroke-width="4" stroke-miterlimit="10"/>
</g>
<path d="M71.9025 19.1557C76.326 15.4838 77.69 9.25935 74.9492 5.253C72.2084 1.24664 66.4006 0.975512 61.9771 4.64741C57.5537 8.3193 56.1896 14.5438 58.9305 18.5501C61.6713 22.5565 67.4791 22.8276 71.9025 19.1557Z" stroke="#26192B" stroke-width="4" stroke-miterlimit="10"/>
<path d="M54.0146 11.4584L70.0209 -1.82783L79.9556 12.6947L63.9494 25.9809L54.0146 11.4584Z" fill="white"/>
<mask id="mask5_51_227" style="mask-type:luminance" maskUnits="userSpaceOnUse" x="54" y="-2" width="26" height="28">
<path d="M54.0146 11.4584L70.0209 -1.82782L79.9556 12.6947L63.9494 25.9809L54.0146 11.4584Z" fill="white"/>
</mask>
<g mask="url(#mask5_51_227)">
<path d="M71.9025 19.1557C76.326 15.4838 77.69 9.25935 74.9492 5.253C72.2084 1.24664 66.4006 0.975512 61.9771 4.64741C57.5537 8.3193 56.1896 14.5438 58.9305 18.5501C61.6713 22.5565 67.4791 22.8276 71.9025 19.1557Z" fill="white" stroke="#26192B" stroke-width="4" stroke-miterlimit="10"/>
</g>
<mask id="mask6_51_227" style="mask-type:luminance" maskUnits="userSpaceOnUse" x="56" y="-2" width="22" height="28">
<path d="M56.2959 20.7274L61.6367 -1.04175L77.6887 3.42304L72.3478 25.1922L56.2959 20.7274Z" fill="white"/>
</mask>
<g mask="url(#mask6_51_227)">
<path d="M54.0146 11.6979L70.1368 -1.82783L79.9556 12.4552L63.8334 25.9809L54.0146 11.6979Z" stroke="#26192B" stroke-width="4" stroke-miterlimit="10"/>
</g>
<path d="M47.6494 9.91457L70.5079 -9.0602L86.3253 14.0606L63.4668 33.0354L47.6494 9.91457Z" stroke="#26192B" stroke-width="4" stroke-miterlimit="10"/>
</g>
<path d="M71.9025 19.1557C76.326 15.4838 77.69 9.25935 74.9492 5.253C72.2084 1.24664 66.4006 0.975512 61.9771 4.64741C57.5537 8.3193 56.1896 14.5438 58.9305 18.5501C61.6713 22.5565 67.4791 22.8276 71.9025 19.1557Z" stroke="#26192B" stroke-width="4" stroke-miterlimit="10"/>
<path d="M62.4658 10.7491L64.0577 9.52167L66.0158 12.5904C66.3501 13.0813 66.6048 13.6074 66.7958 14.1861C66.9072 14.6244 66.8754 15.0979 66.7162 15.5187C66.5092 16.0448 66.1749 16.4832 65.7292 16.7988C65.2039 17.2021 64.7582 17.4301 64.3761 17.5002C64.01 17.5704 63.6279 17.5002 63.2777 17.3249C62.8956 17.1145 62.5613 16.8164 62.3066 16.4306L63.6757 15.0278C63.7871 15.2206 63.9304 15.396 64.0896 15.5363C64.201 15.624 64.3283 15.6766 64.4716 15.6766C64.5831 15.6766 64.6945 15.624 64.7741 15.5538C64.9333 15.4486 65.0447 15.2382 65.0288 15.0278C64.981 14.7297 64.8696 14.4316 64.6945 14.2036L62.4658 10.7491ZM67.2415 12.6956L68.6901 11.433C68.8493 11.6434 69.0563 11.8013 69.2791 11.8889C69.5975 11.9942 69.9318 11.924 70.2024 11.6961C70.3935 11.5558 70.5527 11.3629 70.6163 11.1174C70.7119 10.8018 70.5527 10.451 70.2661 10.3458C70.2184 10.3283 70.1706 10.3108 70.1229 10.3108C69.9318 10.2932 69.5975 10.3809 69.104 10.6089C68.2922 10.9771 67.6554 11.1174 67.1778 11.0648C66.7162 11.0122 66.2864 10.7491 66.0317 10.3108C65.8406 10.0127 65.7451 9.66195 65.7292 9.31125C65.7292 8.90794 65.8247 8.50462 66.0317 8.17145C66.3341 7.698 66.7003 7.29469 67.146 6.97905C67.8146 6.47053 68.4036 6.22503 68.913 6.22503C69.4224 6.22503 69.9 6.48806 70.3457 7.03166L68.913 8.27666C68.6265 7.87335 68.0852 7.78568 67.7191 8.10131L67.6713 8.15392C67.5121 8.25913 67.4007 8.41695 67.337 8.60984C67.2893 8.75012 67.3211 8.90794 67.4007 9.03068C67.4644 9.11836 67.5599 9.1885 67.6713 9.1885C67.7987 9.20604 68.0215 9.1359 68.3399 8.97808C69.1359 8.60984 69.7408 8.39941 70.1547 8.32927C70.5049 8.25913 70.871 8.2942 71.2053 8.45202C71.5078 8.5923 71.7625 8.83779 71.9376 9.13589C72.1605 9.4866 72.2878 9.90745 72.3038 10.3458C72.3197 10.8017 72.2082 11.2401 71.9854 11.6259C71.6988 12.0994 71.3327 12.5027 70.9029 12.8183C70.0273 13.4847 69.311 13.7652 68.7379 13.66C68.1171 13.5548 67.6077 13.2041 67.2415 12.6956Z" fill="#26192B"/>
</g>
</g>
</svg>
