<svg width="30" height="30" viewBox="0 0 30 30" fill="none" xmlns="http://www.w3.org/2000/svg">
<path d="M20.1923 20.7693V21.3462C20.1923 23.5766 22.0004 25.3847 24.2308 25.3847V25.3847V25.3847C22.0004 25.3847 20.1923 27.1928 20.1923 29.4231V30.0001V29.4231C20.1923 27.1928 18.3842 25.3847 16.1538 25.3847V25.3847V25.3847C18.3842 25.3847 20.1923 23.5766 20.1923 21.3462V20.7693Z" fill="#7A8C9A"/>
<path d="M13.2692 0V0.576925C13.2692 2.8073 15.0773 4.61538 17.3077 4.61538V4.61538V4.61538C15.0773 4.61538 13.2692 6.42346 13.2692 8.65384V9.23077V8.65384C13.2692 6.42346 11.4612 4.61538 9.23077 4.61538V4.61538V4.61538C11.4612 4.61538 13.2692 2.8073 13.2692 0.576925V0Z" fill="#7A8C9A"/>
<path d="M23.0769 4.61536V5.99516C23.0769 9.05663 25.5587 11.5384 28.6202 11.5384H30H28.6202C25.5587 11.5384 23.0769 14.0202 23.0769 17.0817V18.4615V17.0817C23.0769 14.0202 20.5951 11.5384 17.5336 11.5384H16.1538H17.5336C20.5951 11.5384 23.0769 9.05663 23.0769 5.99516V4.61536Z" fill="#E1C2EB"/>
<path d="M9.80769 9.23071V11.0384C9.80769 15.4567 13.3894 19.0384 17.8077 19.0384H19.6154H17.8077C13.3894 19.0384 9.80769 22.6201 9.80769 27.0384V28.8461V27.0384C9.80769 22.6201 6.22597 19.0384 1.80769 19.0384H0H1.80769C6.22597 19.0384 9.80769 15.4567 9.80769 11.0384V9.23071Z" fill="#E1C2EB"/>
<circle cx="27.1154" cy="23.6538" r="0.576923" fill="#824271"/>
<circle cx="4.57692" cy="24.5769" r="0.576923" fill="#824271"/>
<circle cx="16.5769" cy="15.5769" r="0.576923" fill="#824271"/>
<path d="M28.8462 16.7307C28.8462 17.0494 28.5879 17.3077 28.2692 17.3077C27.9506 17.3077 27.6923 17.0494 27.6923 16.7307C27.6923 16.4121 27.9506 16.1538 28.2692 16.1538C28.5879 16.1538 28.8462 16.4121 28.8462 16.7307Z" fill="#824271"/>
<circle cx="24.1538" cy="19.1538" r="1.15385" fill="#824271"/>
<circle cx="4.61539" cy="12.6923" r="1.15385" fill="#824271"/>
<circle cx="8.65386" cy="7.50002" r="0.576923" fill="#824271"/>
<circle cx="13.8462" cy="27.6923" r="1.15385" fill="#824271"/>
<circle cx="20.7692" cy="3.46159" r="1.15385" fill="#824271"/>
</svg>
