<svg width="200" height="203" viewBox="0 0 200 203" fill="none" xmlns="http://www.w3.org/2000/svg">
<path fill-rule="evenodd" clip-rule="evenodd" d="M100 22.9809C102.12 22.9809 104.117 22.4957 105.866 21.6395L180.225 140.032C177.646 141.731 175.8 144.31 175.205 147.292H24.7948C24.2003 144.311 22.3544 141.732 19.776 140.032L94.1346 21.6399C95.8837 22.4959 97.8802 22.9809 100 22.9809ZM88.9739 16.9082C89.656 18.0787 90.5523 19.1281 91.6145 20.0119L17.0812 138.682C15.7476 138.199 14.3018 137.921 12.7897 137.889V68.9406C19.5594 68.7991 25 63.7101 25 57.4531C25 55.3727 24.3986 53.4214 23.3468 51.7382L88.9739 16.9082ZM87.8288 14.1196L21.3935 49.3786C19.1273 47.2695 15.9797 45.9625 12.5 45.9625C5.59644 45.9625 0 51.107 0 57.4531C0 62.9436 4.18919 67.5347 9.78967 68.6728V138.157C4.18919 139.295 0 143.886 0 149.377C0 155.723 5.59644 160.867 12.5 160.867C15.98 160.867 19.1278 159.56 21.3941 157.451L87.5517 192.562C88.1299 198.415 93.4824 203 100 203C106.517 203 111.87 198.415 112.448 192.563L178.606 157.451C180.873 159.56 184.02 160.867 187.5 160.867C194.404 160.867 200 155.723 200 149.377C200 143.887 195.811 139.296 190.212 138.157V68.6725C195.811 67.534 200 62.9431 200 57.4531C200 51.107 194.404 45.9625 187.5 45.9625C184.021 45.9625 180.873 47.2693 178.607 49.3781L112.171 14.119C112.386 13.2748 112.5 12.3948 112.5 11.4903C112.5 5.14426 106.904 -0.000244141 100 -0.000244141C93.0964 -0.000244141 87.5 5.14426 87.5 11.4903C87.5 12.395 87.6137 13.2752 87.8288 14.1196ZM111.026 16.9076C110.344 18.0781 109.448 19.1274 108.386 20.0112L182.92 138.682C184.254 138.199 185.699 137.921 187.212 137.889V68.9406C180.441 68.7997 175 63.7105 175 57.4531C175 55.3725 175.602 53.421 176.654 51.7377L111.026 16.9076ZM176.653 155.091C175.757 153.657 175.188 152.029 175.039 150.292H24.9609C24.8121 152.029 24.243 153.657 23.3472 155.091L87.7384 189.265C88.8741 183.993 93.9321 180.019 100 180.019C106.068 180.019 111.126 183.994 112.262 189.266L176.653 155.091Z" fill="#824271"/>
</svg>
