<svg width="30" height="30" viewBox="0 0 30 30" fill="none" xmlns="http://www.w3.org/2000/svg">
<path fill-rule="evenodd" clip-rule="evenodd" d="M19.7946 16.4231C19.9282 15.9721 20 15.4944 20 15C20 12.2386 17.7614 10 15 10C14.5056 10 14.0279 10.0718 13.5769 10.2054L14.414 11.0426C14.6053 11.0145 14.801 11 15 11C17.2091 11 19 12.7909 19 15C19 15.199 18.9855 15.3947 18.9574 15.586L19.7946 16.4231ZM11.7695 12.6407C11.2857 13.3021 11 14.1177 11 15C11 17.2091 12.7909 19 15 19C15.8823 19 16.6979 18.7143 17.3593 18.2305L18.0732 18.9444C17.2253 19.6059 16.1587 20 15 20C12.2386 20 10 17.7614 10 15C10 13.8413 10.3941 12.7747 11.0556 11.9268L11.7695 12.6407Z" fill="#26192B"/>
<path fill-rule="evenodd" clip-rule="evenodd" d="M20.4338 21.3049L19.7049 20.5759C18.2629 21.4223 16.6665 22 15.0003 22C12.7843 22 10.6919 20.9782 8.92197 19.6617C7.1569 18.3487 5.75934 16.7773 4.94365 15.7588C4.52221 15.2325 4.47656 15.1394 4.47656 15C4.47656 14.8606 4.52221 14.7675 4.94365 14.2412C5.75934 13.2227 7.1569 11.6513 8.92197 10.3383C9.02619 10.2608 9.13152 10.1843 9.23793 10.109L8.52116 9.39222C8.45528 9.43984 8.38994 9.48776 8.32514 9.53597C6.46551 10.9192 5.00722 12.5621 4.16311 13.6161L4.10359 13.6902C3.77779 14.0951 3.47656 14.4694 3.47656 15C3.47656 15.5306 3.77779 15.9049 4.10359 16.3098L4.16311 16.3839C5.00722 17.4379 6.46551 19.0808 8.32514 20.464C10.1799 21.8437 12.481 23 15.0003 23C16.9838 23 18.8321 22.2832 20.4338 21.3049ZM11.2087 7.83715C12.3884 7.3255 13.6637 7 15.0003 7C17.5195 7 19.8207 8.15633 21.6754 9.53597C23.535 10.9192 24.9933 12.5621 25.8374 13.6161L25.897 13.6902C26.2228 14.0951 26.524 14.4694 26.524 15C26.524 15.5306 26.2228 15.9049 25.897 16.3098L25.8374 16.3839C25.1837 17.2002 24.1615 18.3697 22.8699 19.4983L22.1611 18.7895C23.4162 17.7003 24.4161 16.5589 25.0569 15.7588C25.4783 15.2325 25.524 15.1394 25.524 15C25.524 14.8606 25.4783 14.7675 25.0569 14.2412C24.2412 13.2227 22.8436 11.6513 21.0786 10.3383C19.3086 9.02176 17.2162 8 15.0003 8C13.9575 8 12.942 8.22628 11.9747 8.60307L11.2087 7.83715Z" fill="#26192B"/>
<path d="M6.25 2.5L26.25 22.5" stroke="#26192B"/>
</svg>
